<svg t="1621596416997" class="icon" viewBox="0 0 1109 1024" version="1.1" xmlns="http://www.w3.org/2000/svg" p-id="2587" width="45" height="45"><path d="M448.94381464 807.21242867A403.793968 403.793968 0 0 1 42.67519964 401.02914667 403.793968 403.793968 0 0 1 448.94381464-5.32480033a403.793968 403.793968 0 0 1 406.268614 406.268615 403.793968 403.793968 0 0 1-406.183282 406.268614z m0-696.484863a287.400272 287.400272 0 0 0-290.130916 290.216249c0 162.558645 127.657603 290.216248 290.130916 290.216248 162.558645 0 290.216248-127.657603 290.216248-290.130916 0-162.558645-127.657603-290.301581-290.130916-290.301581z m545.275456 890.701911L821.42071064 829.22824567a55.466204 55.466204 0 0 1 0-80.38333c23.039808-23.039808 57.59952-23.039808 80.639328 0l172.79856 172.286564a55.466204 55.466204 0 0 1 0 80.38333 55.807535 55.807535 0 0 1-80.639328 0z" fill="#dbdbdb" p-id="2588"></path></svg>