<svg t="1621530616480" class="icon" viewBox="0 0 1024 1024" version="1.1" xmlns="http://www.w3.org/2000/svg" p-id="1467" width="50" height="50"><path d="M809.89184 267.928576c-62.144512-54.493184-153.435136-82.066432-271.16032-82.066432H399.950848v652.986368h138.781696c117.72416 0 209.1776-27.625472 271.16032-81.95584 61.765632-54.059008 94.33088-138.565632 94.33088-244.402176-0.05632-105.944064-32.621568-190.6688-94.331904-244.56192z m-71.263232 419.004416c-41.465856 37.88288-104.64256 57.20576-187.792384 57.20576h-48.249856V281.115648h48.249856c83.1488 0 146.379776 19.267584 187.792384 56.988672 40.706048 37.0176 62.145536 97.262592 62.145536 174.49472-0.054272 77.018112-21.439488 137.207808-62.145536 174.333952M220.408832 579.847168c0 42.985472-2.876416 73.271296-8.574976 90.041344-5.318656 15.90272-14.600192 29.25568-27.409408 39.404544-15.522816 11.885568-34.51904 20.624384-56.337408 26.215424-21.32992 5.4272-48.088064 8.249344-79.350784 8.520704H37.82656v94.60224h10.421248c2.387968 0.160768 4.287488 0 5.047296 0 90.63936 0 161.685504-19.267584 205.647872-56.936448 44.995584-38.643712 67.790848-97.04448 67.790848-174.060544V186.025984h-106.27072l-0.054272 393.821184m712.63232 157.290496" fill="#dbdbdb" p-id="1468"></path></svg>