<svg width="180" height="30" viewBox="0 0 180 30" fill="none" xmlns="http://www.w3.org/2000/svg">
<path d="M65.6698 9.98802V6.60002H56.3198V22H59.8398V16.346H65.5598V12.958H59.8398V9.98802H65.6698ZM69.2895 10.032C70.3675 10.032 71.2695 9.13002 71.2695 8.05202C71.2695 6.97402 70.3675 6.07202 69.2895 6.07202C68.2115 6.07202 67.3095 6.97402 67.3095 8.05202C67.3095 9.13002 68.2115 10.032 69.2895 10.032ZM67.6395 22H70.9395V11H67.6395V22ZM81.4283 11V12.122C80.7023 11.22 79.6463 10.692 78.2163 10.692C75.0923 10.692 72.8043 13.244 72.8043 16.28C72.8043 19.316 75.0923 21.868 78.2163 21.868C79.6463 21.868 80.7023 21.34 81.4283 20.438V21.45C81.4283 23.012 80.4823 23.804 78.9423 23.804C77.4903 23.804 76.8523 23.188 76.4343 22.418L73.6183 24.046C74.6303 25.85 76.5443 26.708 78.8323 26.708C81.7583 26.708 84.6403 25.146 84.6403 21.45V11H81.4283ZM78.7663 18.832C77.2043 18.832 76.1043 17.798 76.1043 16.28C76.1043 14.762 77.2043 13.728 78.7663 13.728C80.3283 13.728 81.4283 14.762 81.4283 16.28C81.4283 17.798 80.3283 18.832 78.7663 18.832ZM99.3814 10.692C97.8194 10.692 96.8074 11.264 96.1914 12.144C95.5754 11.22 94.6074 10.692 93.3094 10.692C91.8354 10.692 90.8674 11.264 90.3614 12.012V11H87.0614V22H90.3614V15.796C90.3614 14.498 90.9774 13.728 92.0774 13.728C93.1334 13.728 93.6614 14.432 93.6614 15.532V22H96.9614V15.796C96.9614 14.498 97.5774 13.728 98.6774 13.728C99.7334 13.728 100.262 14.432 100.262 15.532V22H103.562V15.246C103.562 12.496 101.912 10.692 99.3814 10.692ZM113.803 11V12.034C113.077 11.198 111.999 10.692 110.525 10.692C107.643 10.692 105.267 13.222 105.267 16.5C105.267 19.778 107.643 22.308 110.525 22.308C111.999 22.308 113.077 21.802 113.803 20.966V22H117.103V11H113.803ZM111.185 19.184C109.667 19.184 108.567 18.15 108.567 16.5C108.567 14.85 109.667 13.816 111.185 13.816C112.703 13.816 113.803 14.85 113.803 16.5C113.803 18.15 112.703 19.184 111.185 19.184ZM126.982 22.308C129.798 22.308 132.262 20.922 133.582 18.744L130.546 16.984C129.886 18.172 128.544 18.876 126.982 18.876C124.254 18.876 122.494 17.05 122.494 14.3C122.494 11.55 124.254 9.72402 126.982 9.72402C128.544 9.72402 129.864 10.428 130.546 11.616L133.582 9.85602C132.24 7.67802 129.776 6.29202 126.982 6.29202C122.34 6.29202 118.974 9.76802 118.974 14.3C118.974 18.832 122.34 22.308 126.982 22.308ZM141.783 10.692C140.331 10.692 139.231 11.22 138.637 12.034V6.60002H135.337V22H138.637V15.994C138.637 14.432 139.473 13.728 140.683 13.728C141.739 13.728 142.597 14.366 142.597 15.73V22H145.897V15.246C145.897 12.276 144.005 10.692 141.783 10.692ZM149.813 10.032C150.891 10.032 151.793 9.13002 151.793 8.05202C151.793 6.97402 150.891 6.07202 149.813 6.07202C148.735 6.07202 147.833 6.97402 147.833 8.05202C147.833 9.13002 148.735 10.032 149.813 10.032ZM148.163 22H151.463V11H148.163V22ZM160.324 10.692C158.872 10.692 157.772 11.22 157.178 12.034V11H153.878V22H157.178V15.994C157.178 14.432 158.014 13.728 159.224 13.728C160.28 13.728 161.138 14.366 161.138 15.73V22H164.438V15.246C164.438 12.276 162.546 10.692 160.324 10.692ZM174.69 11V12.034C173.964 11.198 172.886 10.692 171.412 10.692C168.53 10.692 166.154 13.222 166.154 16.5C166.154 19.778 168.53 22.308 171.412 22.308C172.886 22.308 173.964 21.802 174.69 20.966V22H177.99V11H174.69ZM172.072 19.184C170.554 19.184 169.454 18.15 169.454 16.5C169.454 14.85 170.554 13.816 172.072 13.816C173.59 13.816 174.69 14.85 174.69 16.5C174.69 18.15 173.59 19.184 172.072 19.184Z" fill="white"/>
<path fill-rule="evenodd" clip-rule="evenodd" d="M24.2926 0.848267H0V29.4209H18.1615V25.6036H24.2926V0.848267Z" fill="url(#paint0_linear)"/>
<path fill-rule="evenodd" clip-rule="evenodd" d="M48 8.86486C46.3634 10.4522 45.3464 12.6747 45.3464 15.1346C45.3464 17.5946 46.3634 19.817 48 21.4044C45.6434 26.415 40.5498 29.8837 34.646 29.8837C26.5003 29.8837 19.897 23.2803 19.897 15.1346C19.897 6.98893 26.5003 0.385559 34.646 0.385559C40.5498 0.385559 45.6434 3.85428 48 8.86486Z" fill="url(#paint1_linear)"/>
<path fill-rule="evenodd" clip-rule="evenodd" d="M24.2569 25.8154C21.5643 23.1433 19.897 19.4395 19.897 15.3464C19.897 11.2351 21.5791 7.51676 24.2927 4.84198V25.8154H24.2569Z" fill="#4F295F"/>
<defs>
<linearGradient id="paint0_linear" x1="12.1463" y1="0.848267" x2="12.1463" y2="29.4209" gradientUnits="userSpaceOnUse">
<stop stop-color="#2CB87E"/>
<stop offset="1" stop-color="#3AB7DC"/>
</linearGradient>
<linearGradient id="paint1_linear" x1="33.9485" y1="0.385559" x2="33.9485" y2="29.8837" gradientUnits="userSpaceOnUse">
<stop stop-color="#E12058"/>
<stop offset="1" stop-color="#EBAF30"/>
</linearGradient>
</defs>
</svg>
