<?xml version="1.0" standalone="no"?><!DOCTYPE svg PUBLIC "-//W3C//DTD SVG 1.1//EN" "http://www.w3.org/Graphics/SVG/1.1/DTD/svg11.dtd"><svg t="1604716602640" class="icon" viewBox="0 0 1024 1024" version="1.1" xmlns="http://www.w3.org/2000/svg" p-id="1094" xmlns:xlink="http://www.w3.org/1999/xlink" width="200" height="200"><defs><style type="text/css"></style></defs><path d="M507.4 496.7c-127.1 0-238.3 68.1-299.1 169.9v222c0 23.6 19.1 42.7 42.7 42.7h523.5c23.6 0 42.7-19.1 42.7-42.7V685.9c-57.8-112.3-174.8-189.2-309.8-189.2z" fill="#FE7598" p-id="1095"></path><path d="M700.4 246.9m-26.5 0a26.5 26.5 0 1 0 53 0 26.5 26.5 0 1 0-53 0Z" fill="#FE7598" p-id="1096"></path><path d="M251 957.9c-38.2 0-69.2-31.1-69.2-69.2V560.1c0-8.9-7.3-16.2-16.2-16.2h-31.2c-28.8 0-54.2-17.4-64.6-44.3-10.4-26.9-3.3-56.8 18-76.2L462.1 83.5c26.3-23.9 66.1-24 92.6-0.4l90.7 80.9c10.9 9.7 11.9 26.5 2.1 37.4-9.7 10.9-26.5 11.9-37.4 2.1l-90.7-80.9c-6.2-5.5-15.5-5.5-21.7 0.1l-374.3 340c-7.4 6.7-5.4 14.7-4.2 17.9 1.2 3.1 5.1 10.4 15.1 10.4h31.2c38.2 0 69.2 31.1 69.2 69.2v328.5c0 8.9 7.3 16.2 16.2 16.2h523.5c8.9 0 16.2-7.3 16.2-16.2V560.1c0-38.2 31-69.2 69.2-69.2h29.8c10.1 0 14-7.3 15.2-10.4 1.2-3.1 3.2-11.2-4.4-17.9l-145-129.4c-10.9-9.7-11.9-26.5-2.1-37.4 9.7-10.9 26.5-11.9 37.4-2.1L935.8 423c21.6 19.3 28.9 49.2 18.6 76.3-10.3 27.1-35.7 44.6-64.7 44.6h-29.8c-8.9 0-16.2 7.3-16.2 16.2v328.5c0 38.2-31.1 69.2-69.2 69.2l-523.5 0.1z" p-id="1097"></path><path d="M629.3 958.5H394.7V704.9c0-64.7 52.6-117.3 117.3-117.3s117.3 52.6 117.3 117.3v253.6z m-181.6-53h128.7V704.9c0-35.5-28.9-64.3-64.3-64.3s-64.3 28.9-64.3 64.3v200.6z" p-id="1098"></path></svg>